<svg xmlns="http://www.w3.org/2000/svg" width="990.318" height="563.811" viewBox="0 0 990.318 563.811">
  <g id="Layer_1" data-name="Layer 1" transform="translate(-26.647 -231.332)">
    <g id="Group_1" data-name="Group 1">
      <path id="Path_1" data-name="Path 1" d="M427.054,243.913c-60.075-17.943-95.695,39.342-92.506,95.7,3.137,55.412,15.95,83.468,32.431,118.025,25.25,52.944,45.854,104.068,97.821,92.505S582.825,523.024,574.85,411.38C570.293,347.584,487.129,261.856,427.054,243.913Z" fill="none" stroke="#000" stroke-linejoin="round" stroke-width="9.601"/>
      <path id="Path_2" data-name="Path 2" d="M792.066,275.186c-38.732,17.3-62.625,71.223-42.624,138.528s83.9,147.993,122.627,130.691S918.1,377.413,898.1,310.109,830.8,257.884,792.066,275.186Z" fill="none" stroke="#000" stroke-linecap="round" stroke-linejoin="round" stroke-width="10"/>
    </g>
    <path id="Path_3" data-name="Path 3" d="M482.476,270.418s249.827-33.2,268.375,18.319-106.55,186.4-185.023,186.4" fill="none" stroke="#000" stroke-linecap="round" stroke-linejoin="round" stroke-width="9.601"/>
    <path id="Path_4" data-name="Path 4" d="M702.763,453.609c43.405,0,68.377,22.579,96.634,50.835" fill="none" stroke="#000" stroke-linecap="round" stroke-linejoin="round" stroke-width="9.601"/>
    <path id="Path_5" data-name="Path 5" d="M248.883,245.7c24.619,12.31,97.073-7.937,29.432,34.338" fill="none" stroke="#000" stroke-linecap="round" stroke-linejoin="round" stroke-width="9.601"/>
    <path id="Path_6" data-name="Path 6" d="M59.675,278.64c0,.811,39.225-5.606,46.952-5.606" fill="none" stroke="#000" stroke-linecap="round" stroke-linejoin="round" stroke-width="9.601"/>
    <path id="Path_7" data-name="Path 7" d="M84.2,343.812c6.715,3.358,137.547-2.9,33.637,49.054" fill="none" stroke="#000" stroke-linecap="round" stroke-linejoin="round" stroke-width="9.601"/>
    <path id="Path_8" data-name="Path 8" d="M141.665,411.086c-5.98,3.987,36.693-27.9,49.755-35.739" fill="none" stroke="#000" stroke-linecap="round" stroke-linejoin="round" stroke-width="9.601"/>
    <path id="Path_9" data-name="Path 9" d="M439.747,570.861c-.771-1.156,7.34,38.953,9.11,50.456,3.634,23.624,5.055,46.991,6.307,70.777.616,11.7,2.8,46.756,2.8,35.039" fill="none" stroke="#000" stroke-linecap="round" stroke-linejoin="round" stroke-width="9.601"/>
    <path id="Path_10" data-name="Path 10" d="M530.146,575.066c-5.736-2.868-4.306,6.28-5.606,11.913-7.435,32.22-31.407,108.874-14.716,142.256" fill="none" stroke="#000" stroke-linecap="round" stroke-linejoin="round" stroke-width="9.601"/>
    <path id="Path_11" data-name="Path 11" d="M292.84,448.227c-12.055,24.11,21.121,85.552,42.046,98.107" fill="none" stroke="#000" stroke-linecap="round" stroke-linejoin="round" stroke-width="9.601"/>
    <path id="Path_12" data-name="Path 12" d="M365.72,580.672c0,14.4,28.823,105.862,46.952,114.926" fill="none" stroke="#000" stroke-linecap="round" stroke-linejoin="round" stroke-width="9.601"/>
    <path id="Path_13" data-name="Path 13" d="M685.271,500.784c17.744-4.436,38.255-18.426,54.66-26.629" fill="none" stroke="#000" stroke-linecap="round" stroke-linejoin="round" stroke-width="9.601"/>
    <path id="Path_14" data-name="Path 14" d="M846.448,563.153c23.32,23.32,34.075,64.767,44.849,94.6,4.248,11.761,24.036,57.182,23.126,55.361" fill="none" stroke="#000" stroke-linecap="round" stroke-linejoin="round" stroke-width="9.601"/>
    <path id="Path_15" data-name="Path 15" d="M917.366,479.638c0,45.818,4.279,118.151,40.19,154.061" fill="none" stroke="#000" stroke-linecap="round" stroke-linejoin="round" stroke-width="9.601"/>
    <path id="Path_16" data-name="Path 16" d="M917.366,342.7c25.933,51.866,31.853,114.613,61.773,164.481" fill="none" stroke="#000" stroke-linecap="round" stroke-linejoin="round" stroke-width="9.601"/>
    <path id="Path_17" data-name="Path 17" d="M912.9,276.456c56.25,75,51.212,167.747,97.5,247.093" fill="none" stroke="#000" stroke-linecap="round" stroke-linejoin="round" stroke-width="9.601"/>
    <path id="Path_18" data-name="Path 18" d="M313.123,249.267c16.36,10.908,27.319,9.153,45.761,9.153" fill="none" stroke="#000" stroke-linecap="round" stroke-linejoin="round" stroke-width="9.601"/>
    <path id="Path_19" data-name="Path 19" d="M93.466,250.1c23.646-15.764,78.157-12.487,104.836-9.152" fill="none" stroke="#000" stroke-linecap="round" stroke-linejoin="round" stroke-width="9.601"/>
    <path id="Path_20" data-name="Path 20" d="M46.872,291.7C6.8,311.735,56.12,332.935,68.5,339.127" fill="none" stroke="#000" stroke-linecap="round" stroke-linejoin="round" stroke-width="9.601"/>
    <path id="Path_21" data-name="Path 21" d="M110.106,403.194c0,11.535,14.689,11.866,22.465,14.976" fill="none" stroke="#000" stroke-linecap="round" stroke-linejoin="round" stroke-width="9.601"/>
    <path id="Path_22" data-name="Path 22" d="M199.134,403.194c19.793-39.587,40.38-77.07,79.875-99.012" fill="none" stroke="#000" stroke-linecap="round" stroke-linejoin="round" stroke-width="9.601"/>
    <path id="Path_23" data-name="Path 23" d="M571.885,535.487c48.4-24.2,130.406-16.566,185.544-34.945" fill="none" stroke="#000" stroke-linecap="round" stroke-linejoin="round" stroke-width="9.601"/>
    <path id="Path_25" data-name="Path 25" d="M347.539,266.74c-15.264,0,13.124,27.572,19.136,41.6,3.19,7.442-8.195-21.642-9.984-27.457-11.913-38.717,12.8,33.383,12.48,30.785-6.883-55.069-18.079-32,16.641,37.442" fill="none" stroke="#000" stroke-linecap="round" stroke-linejoin="round" stroke-width="9.601"/>
    <path id="Path_26" data-name="Path 26" d="M375.828,251.764c0,14.707,18.1,38.1,24.129,48.258,3.209,5.4,5.857,10.882,13.312,25.793" fill="none" stroke="#000" stroke-linecap="round" stroke-linejoin="round" stroke-width="9.601"/>
    <path id="Path_27" data-name="Path 27" d="M398.293,246.771c-10.053,20.106,10.816,66.563,10.816,66.563s-8.085-39.7-21.633-53.25c-7.33-7.33,30.728,81.683,4.992,21.633-3.945-9.205-17.407-33.194-4.992-16.641,5.91,7.88-4.721-19.989,1.664-.832" fill="none" stroke="#000" stroke-linecap="round" stroke-linejoin="round" stroke-width="9.601"/>
    <path id="Path_28" data-name="Path 28" d="M445.189,270.484c3.062-16.639,19.137,63.929,19.137,47.01C464.326,214.342,433.9,331.836,445.189,270.484Z" fill="none" stroke="#000" stroke-linecap="round" stroke-linejoin="round" stroke-width="9.601"/>
    <path id="Path_29" data-name="Path 29" d="M526.728,270.068c-10-19.995,35,71.153,13.313,65.731-22.261-5.565-37.089-83.634-30.785-61.571,6.677,23.372,9.93,91.632,20.8,69.891,11.47-22.94-49.63-85.782-28.29-71.555,23.018,15.345,35.778,102.547,35.778,74.883,0-57.379-58.939-97.976-2.5-13.312,13.522,20.283-9.759-32.152-11.649-37.442-20.408-57.143,1.993,11.481,12.481,14.977" fill="none" stroke="#000" stroke-linecap="round" stroke-linejoin="round" stroke-width="9.601"/>
    <path id="Path_30" data-name="Path 30" d="M569.994,265.076c-29.062,0,31.417,111.579,19.969,84.868-4.086-9.534-27.108-87.539-19.137-91.524,30.123-15.062,32.45,129.363,32.45,95.684,0-14.891-4.872-31.125-9.985-44.93-38.659-104.379,37.856,82.617-4.992-11.649-28.844-63.457,3.3,14.913,14.145,36.61" fill="none" stroke="#000" stroke-linecap="round" stroke-linejoin="round" stroke-width="9.601"/>
    <path id="Path_31" data-name="Path 31" d="M646.541,276.725c-8.859-35.438,12.1,63.234,8.321,63.234-26.782,0-48.415-77.379-21.633-77.379,27.451,0,17.112,104.254,25.793,78.211,8.772-26.316-36.256-101.154-16.641-81.539,9.777,9.777,12.481,104.983,12.481,56.578" fill="none" stroke="#000" stroke-linecap="round" stroke-linejoin="round" stroke-width="9.601"/>
    <path id="Path_32" data-name="Path 32" d="M688.975,265.076c4.479,8.959,38.36,42.72,32.449,51.586-5.48,8.222-49.264-46.536-44.1-48.258,17.767-5.922,88.113,104.149,22.465,29.121-28.527-32.6-2.27-16.716,13.312,6.657" fill="none" stroke="#000" stroke-linecap="round" stroke-linejoin="round" stroke-width="9.601"/>
    <path id="Path_33" data-name="Path 33" d="M750.546,279.221c-1.5,0,24.979,29.99,30.785,41.6,3.321,6.643-43.151-24.244-35.778-31.617,4.15-4.15,22.276,17.151,24.129,19.137,37.486,40.163-25.1-20.528-22.465-25.793,6.782-13.562,41.738,43.356,29.122,34.945-47.012-31.341-62.2-57.414-8.321,4.16,8.177,9.345-5.444-.143-8.32-2.5a79.689,79.689,0,0,1-10.816-9.984c-4.423-4.763-9.588-10.855-12.481-16.641-5.624-11.248,19.4,16.069,28.289,24.961" fill="none" stroke="#000" stroke-linecap="round" stroke-linejoin="round" stroke-width="9.601"/>
    <path id="Path_34" data-name="Path 34" d="M802.964,274.228c18.092,13.569,14.826,56.579,37.441,56.579,15.811,0-24.87-58.072-17.472-44.1,22.934,43.32,7.655,18.807-1.665-9.152-2.171-6.515,14.977,21.011,14.977,14.144" fill="none" stroke="#000" stroke-linecap="round" stroke-linejoin="round" stroke-width="9.601"/>
    <path id="Path_35" data-name="Path 35" d="M857.878,269.236c7.854,23.563,58.825,76.007,36.609,64.9-21.735-10.868-44.929-81.711-44.929-57.41,0,26.684,67.958,82.1,49.09,63.234-5.957-5.956-59.322-61.488-49.09-64.9,33.131-11.043,29.121,62.6,29.121,30.786" fill="none" stroke="#000" stroke-linecap="round" stroke-linejoin="round" stroke-width="9.601"/>
    <path id="Path_36" data-name="Path 36" d="M940.249,322.486c0,38.576-14.569,27.67,2.5,19.137" fill="none" stroke="#000" stroke-linecap="round" stroke-linejoin="round" stroke-width="9.601"/>
    <path id="Path_37" data-name="Path 37" d="M956.89,376.569c-7.515,22.544.646,26.472,1.664,25.793" fill="none" stroke="#000" stroke-linecap="round" stroke-linejoin="round" stroke-width="9.601"/>
    <path id="Path_38" data-name="Path 38" d="M981.019,443.963c-12.5,37.509,2.5,18.664,2.5,24.961" fill="none" stroke="#000" stroke-linecap="round" stroke-linejoin="round" stroke-width="9.601"/>
    <path id="Path_39" data-name="Path 39" d="M991,499.71c-1.014.507-2.633,23.224,0,16.64" fill="none" stroke="#000" stroke-linecap="round" stroke-linejoin="round" stroke-width="9.601"/>
    <path id="Path_40" data-name="Path 40" d="M91.377,302.686c14.767-29.535,47.362-20.121,71-28" fill="none" stroke="#000" stroke-linecap="round" stroke-linejoin="round" stroke-width="9.601"/>
    <path id="Path_41" data-name="Path 41" d="M94.377,375.686c2.962,5.923,10.474,28,18,28" fill="none" stroke="#000" stroke-linecap="round" stroke-linejoin="round" stroke-width="9.601"/>
    <path id="Path_42" data-name="Path 42" d="M99.377,376.686c6.16,3.08,14.506,9,22,9" fill="none" stroke="#000" stroke-linecap="round" stroke-linejoin="round" stroke-width="9.601"/>
    <path id="Path_43" data-name="Path 43" d="M58.377,336.686v2l1,4,3,9,1,2,2,4,2,2,1,2,1,2,2,1v-6l1-4v-4l1-2v-5h0" fill="none" stroke="#000" stroke-linecap="round" stroke-linejoin="round" stroke-width="9.601"/>
    <path id="Path_44" data-name="Path 44" d="M235.377,395.686c27.843,13.922,51.355,48.71,65,76" fill="none" stroke="#000" stroke-linecap="round" stroke-linejoin="round" stroke-width="9.601"/>
    <path id="Path_45" data-name="Path 45" d="M283.377,423.686c13.769,0,54.358,42.679,71,51" fill="none" stroke="#000" stroke-linecap="round" stroke-linejoin="round" stroke-width="9.601"/>
    <path id="Path_46" data-name="Path 46" d="M336.741,548.686c5.2,15.6,19.4,29.792,27,45" fill="none" stroke="#000" stroke-linecap="round" stroke-linejoin="round" stroke-width="9.601"/>
    <path id="Path_47" data-name="Path 47" d="M363.741,727.686c17.832-26.749,28.494-29.259,44-6" fill="none" stroke="#000" stroke-linecap="round" stroke-linejoin="round" stroke-width="9.601"/>
    <path id="Path_48" data-name="Path 48" d="M382.741,748.686c0,9.057,43,13.337,43,6" fill="none" stroke="#000" stroke-linecap="round" stroke-linejoin="round" stroke-width="9.601"/>
    <path id="Path_49" data-name="Path 49" d="M439.741,753.686c-13.391-26.781,25.051-26,35-26" fill="none" stroke="#000" stroke-linecap="round" stroke-linejoin="round" stroke-width="9.601"/>
    <path id="Path_50" data-name="Path 50" d="M461.741,759.686c5.018-7.527,15.27-27,25-27" fill="none" stroke="#000" stroke-linecap="round" stroke-linejoin="round" stroke-width="9.601"/>
    <path id="Path_51" data-name="Path 51" d="M492.741,772.686c5.354-10.708,12.222-19.668,16-31" fill="none" stroke="#000" stroke-linecap="round" stroke-linejoin="round" stroke-width="9.601"/>
    <path id="Path_52" data-name="Path 52" d="M697.741,524.686c77.473,77.474,66,99.981,66,197" fill="none" stroke="#000" stroke-linecap="round" stroke-linejoin="round" stroke-width="9.601"/>
    <path id="Path_53" data-name="Path 53" d="M823.741,527.686c-19.194,38.387,11,65.809,11,99" fill="none" stroke="#000" stroke-linecap="round" stroke-linejoin="round" stroke-width="9.601"/>
    <path id="Path_54" data-name="Path 54" d="M833.741,632.686c-13.852,27.7-27.227,56.454-41,84" fill="none" stroke="#000" stroke-linecap="round" stroke-linejoin="round" stroke-width="9.601"/>
    <path id="Path_55" data-name="Path 55" d="M874.1,262.686c12.672,0,40.487,11.486,50,21" fill="none" stroke="#000" stroke-linecap="round" stroke-linejoin="round" stroke-width="9.601"/>
    <path id="Path_56" data-name="Path 56" d="M956.1,636.686c0,35.082-22,70.376-22,106" fill="none" stroke="#000" stroke-linecap="round" stroke-linejoin="round" stroke-width="9.601"/>
    <path id="Path_57" data-name="Path 57" d="M78.1,347.686c10.452,5.226,25.426-24.287,40-17" fill="none" stroke="#000" stroke-linecap="round" stroke-linejoin="round" stroke-width="9.601"/>
    <path id="Path_58" data-name="Path 58" d="M112.1,331.686c19.727-6.575,37.633,15.948,47,30" fill="none" stroke="#000" stroke-linecap="round" stroke-linejoin="round" stroke-width="9.601"/>
    <path id="Path_59" data-name="Path 59" d="M177.1,252.686c13.452,26.9,74.758-60.515,37,15" fill="none" stroke="#000" stroke-linecap="round" stroke-linejoin="round" stroke-width="9.601"/>
    <path id="Path_60" data-name="Path 60" d="M901.1,712.686c0-3.726-37.7,19.6-29,37" fill="none" stroke="#000" stroke-linecap="round" stroke-linejoin="round" stroke-width="9.601"/>
    <path id="Path_61" data-name="Path 61" d="M894.1,736.686c-8.121,4.061-9,26.155-9,33" fill="none" stroke="#000" stroke-linecap="round" stroke-linejoin="round" stroke-width="9.601"/>
    <path id="Path_62" data-name="Path 62" d="M913.1,740.686c-4.833,7.251-11.158,25.92-1,31" fill="none" stroke="#000" stroke-linecap="round" stroke-linejoin="round" stroke-width="9.601"/>
    <path id="Path_64" data-name="Path 64" d="M754.468,718.686c-14.32,0-21.671,16.342-27,27" fill="none" stroke="#000" stroke-linecap="round" stroke-linejoin="round" stroke-width="9.601"/>
    <path id="Path_65" data-name="Path 65" d="M754.468,737.686c-11.959,0-18.995,31-11,31" fill="none" stroke="#000" stroke-linecap="round" stroke-linejoin="round" stroke-width="9.601"/>
    <path id="Path_66" data-name="Path 66" d="M769.468,744.686v18l2,1h0" fill="none" stroke="#000" stroke-linecap="round" stroke-linejoin="round" stroke-width="9.601"/>
    <path id="Path_67" data-name="Path 67" d="M800.468,726.686c0,26.048-40.232,77.536-65,28" fill="none" stroke="#000" stroke-linecap="round" stroke-linejoin="round" stroke-width="9.601"/>
    <path id="Path_69" data-name="Path 69" d="M719.832,487.686c-5.167,10.334-7.3,23.91-11,35" fill="none" stroke="#000" stroke-linecap="round" stroke-linejoin="round" stroke-width="9.601"/>
    <path id="Path_70" data-name="Path 70" d="M731.832,482.686c0,10.75-6.564,22.69-10,33-.32.959-2.649,6.245-3,8-.27,1.348-.028,4.972-1,4-1.52-1.52,4.6-13.876,5-15,4.026-11.275,7.285-22.386,13-33,3.436-6.381,6.889-11.889,12-17,.972-.972,3.805-2.361,4-1,.462,3.233-3.45,13.257-4,15-4.095,12.967-7.945,26.022-12,39-1.409,4.509-2.249,8.622-4,13-.554,1.384-1.529,2.586-2,4-.211.632-.3,2.6,0,2,3.584-7.168,5.344-15.689,9-23a198.086,198.086,0,0,1,16-27c3.972-5.462,7.379-7.932,8-7,1.7,2.557-1.156,6.045-2,9-2.992,10.473-6.8,20.585-10,31-1.148,3.729-2.928,7.248-4,11-.378,1.321-1.334,5.333-1,4,2.827-11.31,9.838-21.676,15-32,1-2,1.849-4.083,3-6a35.346,35.346,0,0,1,5-7c.527-.527,1.723-1.692,2-1,2.633,6.583-5.943,30.8-8,38-1.044,3.654-2.078,7.313-3,11-.412,1.649-1,5-1,5a6.008,6.008,0,0,1,0-2c1.038-3.115,2.962-5.886,4-9,2.691-8.074,5.6-15.666,10-23,1.618-2.7,2.776-5.776,5-8,.527-.527,1.616-1.639,2-1,4.247,7.078-7.3,32.5-9,41-.86,4.3-1.14,8.7-2,13-.27,1.348-.774,2.644-1,4-.11.658-.472,2.471,0,2,3.472-3.473,3.049-6.774,5-11a273.692,273.692,0,0,1,15-28c2.132-3.465,4.743-6.615,7-10,.666-1,2.708-3.166,3-2,.824,3.3-1.066,6.731-2,10-2.887,10.105-7.232,19.851-10,30-.139.509-1.977,12-3,12-2.93,0,4.918-12.849,5-13,4.13-7.572,7.306-15.357,13-22,1.1-1.283,3.429-4.714,6-3,3.267,2.178-3.929,20.322-5,23-1.958,4.893-3.334,10-5,15l-3,9c-.435,1.3-1,5.374-1,4,0-8.991,13.842-32.921,22-37" fill="none" stroke="#000" stroke-linecap="round" stroke-linejoin="round" stroke-width="9.601"/>
    <path id="Path_71" data-name="Path 71" d="M326.832,453.686c0,3.517.109,2.9-1,8-1.237,5.688-2.8,11.3-4,17-1.247,5.923,12.215-17.785,16-14,4.1,4.1-.806,22.224-2,27a46.852,46.852,0,0,1-2,6c-.277.692-1.746,2-1,2,1.318,0,9.368-12.368,11-14,.519-.52,5.251-3.122,6-2,2.672,4.009-7.346,28.451-9,33-1.019,2.8-2.893,5.232-4,8a5.139,5.139,0,0,0,0,2,75.729,75.729,0,0,1,3-7c1.07-1.963,2-4,3-6a84.26,84.26,0,0,1,13-19c2.784-3.182,5.67-7.887,7-7,2.094,1.4.308,7.152,0,8a230.3,230.3,0,0,1-10,24l-4,8s2.4-6.13,4-9c3.027-5.449,6.159-12.966,11-17,.138-.115,6.477-5.567,7-4,2.763,8.29-5.743,28.184-9,36-1.147,2.752-2.667,5.333-4,8-.472.943.054,3-1,3-2.357,0,.124-4.812,1-7a56.418,56.418,0,0,1,3-6c4.46-8.177,8.917-16.9,15-24,1.749-2.041,5.509-6.236,7-4,1.858,2.787-.08,6.779-1,10-2.525,8.838-6.56,18.4-10,27-1.717,4.291-1.835,3.392-4,7-.707,1.178-1,5.374-1,4,0-9.023,9.286-20.334,15-27,.344-.4,7.1-8.253,8-6,3.918,9.8-5.226,24.508-9,33-1.211,2.724-2.667,5.333-4,8-.334.667-1.236,2.707-1,2,3.164-9.492,9.345-17.923,15-26,1.5-2.138,5.165-9,9-9,.666,0-.11,1.342,0,2,.226,1.356,1,2.626,1,4a24.991,24.991,0,0,1-1,6,167.546,167.546,0,0,1-13,34c-1.2,2.4-1.313,7-4,7-1.163,0-.809-1.26,2-8,.976-2.343,1.864-4.729,3-7a125.224,125.224,0,0,1,23-32c.946-.947,7.025-6.633,9-4,3.183,4.244-.353,9.43-2,13-4.6,9.97-9.46,19.5-15,29-1.959,3.358-3.94,6.7-6,10a51.862,51.862,0,0,1-4,5s2.666-4,4-6c2.368-3.552,5.632-6.448,8-10,5.615-8.423,10.923-18.538,19-25,2.328-1.863,5.333-5.333,8-4,3.052,1.526-3.14,16.28-4,18-6.175,12.35-13.566,23.317-21,35a92.912,92.912,0,0,1-6,8c-.466.582-.255,2-1,2-.667,0-.263-1.387,0-2a113.191,113.191,0,0,1,10-18c5.649-8.16,11.9-16.157,18-24,.806-1.037,4.57-6.43,7-4,3.972,3.972-3.552,13.1-5,16-6.086,12.171-12.606,24.01-19,36-2.179,4.086-4.432,8.147-7,12a35.963,35.963,0,0,0-2,4c-.334.667-1.447,2.6-1,2,8.476-11.3,15.238-23.735,24-35,2.4-3.086,7.59-8.228,8-7,1.578,4.735-.689,8.737-2,13-3.815,12.4-9.583,23.262-15,35-2.5,5.414-5.144,10.431-7,16a29.821,29.821,0,0,1-2,4l1-2c1.612-3.225,4.064-5.958,6-9,4.852-7.626,10.018-14.528,15-22,.727-1.091,9.014-9.979,11-7,.771,1.157-.818,6.452-1,7-.9,2.7-2,5.333-3,8-3.986,10.63-9.244,20.7-14,31-1.629,3.529-3.94,6.7-6,10-.79,1.264-1.334,2.667-2,4-.334.667-1.236,2.707-1,2,1.969-5.908,5.892-9.673,9-15,4.187-7.178,8.015-15.015,14-21,1.118-1.119,7.715-6.762,10-6,.632.211.094,1.34,0,2-.779,5.449-3.034,10.887-5,16-4.213,10.952-9.182,22.4-14,33-1.359,2.989-3.1,5.843-4,9a11.432,11.432,0,0,1-1,2s2.557-4.733,4-7c1.29-2.028,2.789-3.924,4-6a60.8,60.8,0,0,1,11-14c2.392-2.393,6.01-6.98,7-5,2.288,4.577-3.439,12.252-5,16-2.85,6.839-5.651,13.954-8,21" fill="none" stroke="#000" stroke-linecap="round" stroke-linejoin="round" stroke-width="9.601"/>
    <path id="Path_72" data-name="Path 72" d="M528.832,284.686a138.744,138.744,0,0,0-6,13c-1.449,3.622-3.123,7.2-4,11-.168.726.333,2.333,1,2,1.429-.715,17.426-24.866,19-17,1.528,7.641-5.089,19.208-8,26-1.136,2.65-1.7,5.4-3,8-.334.667-1.746,2-1,2,3.347,0,15.308-18.794,18-17,3.483,2.322-1.176,10.732-2,13-2.89,7.946-5.236,15.471-9,23-1.732,3.464-1.88,5.819-4,9-.523.784-2,2.943-2,2,0-2.619,10.844-15.844,13-18,1.178-1.179,2.821-4.179,4-3,1.517,1.517-1.815,6.538-2,7-3.419,8.546-6.874,16.748-11,25-1.175,2.35-4.032,7.968-4,8,1.509,1.509,3.633-2.36,5-4,1.615-1.938,11.889-14.7,14-14,2.964.988-1.834,9.541-2,10-3.495,9.61-8.265,18.663-12,28-2,5,11.841-9.841,13-11,1.178-1.179,3.6-4.617,4-3,1.723,6.893-8.36,21.84-11,28a49.667,49.667,0,0,1-3,6c-.384.639-1.746,2-1,2,1.943,0,3.261-2.131,5-3" fill="none" stroke="#000" stroke-linecap="round" stroke-linejoin="round" stroke-width="9.601"/>
    <path id="Path_73" data-name="Path 73" d="M601.832,314.686c-6.082,9.123-7.366,20.655-11,31-1.089,3.1-2.642,6.011-4,9-.617,1.357-2.667,5.333-2,4a99.939,99.939,0,0,1,11-18c.883-1.1,2.272-4.213,3-3,2.929,4.882-4.061,24.181-6,30-.8,2.408-2.057,4.643-3,7-.277.692-1,2.745-1,2,0-5.258,10.205-17.11,13-22,.935-1.637,2.313-4.843,4-4,1.868.934-2.6,12.953-3,14-3.291,8.557-5.595,17.486-9,26-.943,2.357-2.057,4.643-3,7-.277.692-1.527,2.527-1,2a47.094,47.094,0,0,1,8-7c1.783-1.189,5.714-5,8-5,5.265,0-1.189,15.769-2,18-3.511,9.655-10,21.846-10,32" fill="none" stroke="#000" stroke-linecap="round" stroke-linejoin="round" stroke-width="9.601"/>
    <path id="Path_74" data-name="Path 74" d="M659.832,308.686c-10.188,13.583-15.083,31.783-22,47-.276.607-.248-1.381,0-2,.446-1.116,1.462-1.925,2-3,.8-1.606,1.2-3.4,2-5a69.174,69.174,0,0,1,12-17l5-5c.453,1.36-2.778,10.467-3,11-3.254,7.808-4.778,16.611-9,24a26.122,26.122,0,0,0-2,3c-.17.423.487,4-1,4-1.795,0,1.109-3.442,2-5,2.927-5.122,5.8-9.8,10-14,1.178-1.179,3.6-4.617,4-3,1,4-1.272,8.256-3,12-4.677,10.132-10.97,19.94-16,30-.943,1.886-.51,4.509-2,6-.472.471-.211-1.368,0-2a24.213,24.213,0,0,1,2-4c.944-1.7,2-3.333,3-5a88.776,88.776,0,0,1,12-16c.527-.527,1.38-1.414,2-1,2.676,1.784-.5,6.992-1,8-3.137,6.274-5.854,12.708-9,19l-3,6c-.334.667-1.639,2.383-1,2,4.726-2.836,12.158-10.455,14-8,4.451,5.936-5.062,20.185-7,26" fill="none" stroke="#000" stroke-linecap="round" stroke-linejoin="round" stroke-width="9.601"/>
    <path id="Path_75" data-name="Path 75" d="M723.832,308.686c-5.838,0-4.1,8.01-6,12-2.757,5.789-6.255,11.2-9,17-.286.6-.6,2.3,0,2,1.578-.789,7.643-10.643,10-13,.082-.083,5.754-4.738,6-4,1.162,3.486-4.439,12.268-6,15-.478.836-2.663,3.652-3,5-.162.647-.472,2.471,0,2,1.506-1.506,8.421-17.193,12-16,7.041,2.347-8.84,19.893,0,14" fill="none" stroke="#000" stroke-linecap="round" stroke-linejoin="round" stroke-width="9.601"/>
    <path id="Path_76" data-name="Path 76" d="M691.832,274.686c0,11.353-1.313,22.668-2,34-.716,11.815,11.536-6.768,14-8,.666-.333,1.473-1.527,2-1,4.766,4.766-6.828,31.586,0,35" fill="none" stroke="#000" stroke-linecap="round" stroke-linejoin="round" stroke-width="9.601"/>
    <path id="Path_77" data-name="Path 77" d="M452.832,267.686c-3.364,1.682-7,11.365-7,15,0,1.2,1.333-2,2-3s1.4-1.957,2-3c.739-1.294,1.21-2.736,2-4,.28-.448,8.075-12.387,9-11,1.734,2.6-6.81,23.826-8,27-1.394,3.717-2.291,3.453-3,7-.262,1.307-1.193,4.6,0,4,5.393-2.7,9.151-10.363,14-14,.6-.447,1.553-1.6,2-1,4.544,6.059-4.233,20.466-7,26-2.447,4.894-1.21,1.279-4,5-.447.6-1.667,2.333-1,2,5.4-2.7,9.188-11.151,14-15,1.164-.931,3.233-3.278,4-2,4.056,6.76-2.946,19.891-6,26-.869,1.738-2.131,3.261-3,5-.334.667-1.746,2-1,2,2.134,0,3.018-3.207,5-4,5.648-2.259,1.321,12.391,1,14" fill="none" stroke="#000" stroke-linecap="round" stroke-linejoin="round" stroke-width="9.601"/>
    <path id="Path_78" data-name="Path 78" d="M397.832,241.686c0-2.851.3-2.478-1,0-3.321,6.34-6.679,12.66-10,19-.212.4-2.611,6.39-4,5-2.2-2.2,3.9-7.53,5-9,.229-.3,4.163-6.4,5-5,3.8,6.33-1.042,27.333-2,35-.056.449-2.077,6.923-1,8,5.049,5.05,10.912-5.725,15-3,4.973,3.316-4.279,26.721-3,28,2.154,2.154,7.369-4.631,11-1,2.321,2.321-1.621,15.242-3,18" fill="none" stroke="#000" stroke-linecap="round" stroke-linejoin="round" stroke-width="9.601"/>
    <path id="Path_79" data-name="Path 79" d="M347.832,261.686c-2.281,4.561-1.894,10.022-3,15-1.719,7.735-5.926,14.7-9,22-.29.687-1.527,2.527-1,2,6.994-6.994,10.662-17.4,17-25,.228-.274,5.3-6.089,6-4,1.518,4.555-5.127,23-7,28-.311.83-4.523,9.477-4,10s1.4-.553,2-1c2.281-1.711,10.644-12.474,14-8,2.46,3.28-4.063,23.315-5,28-.146.731-1.334,1.333-1,2,.3.6,1.4.3,2,0,1.5-.75,13.162-14.675,16-9,2.692,5.385-3.841,14.682-6,19-.189.378-2.961,6.359-2,7,2.766,1.844,8.71-3.193,12-1,.558.372-1,12.41-1,14" fill="none" stroke="#000" stroke-linecap="round" stroke-linejoin="round" stroke-width="9.601"/>
    <path id="Path_80" data-name="Path 80" d="M766.832,287.686c-3.7,5.557-4.143,10.9-6,17-1.75,5.749-4.822,11.107-6,17-.236,1.178,2.15-1.15,3-2s1.15-2.15,2-3c1.218-1.218,12.416-9.375,14-7,2.5,3.753-4.486,19.214-6,23a43.026,43.026,0,0,0-2,9c-.123.735-1.746,2-1,2,2.185,0,10.581-15.419,14-12,4.945,4.945-3.4,17.2-5,22-.667,2-1.489,3.955-2,6-.162.647-.555,2.37,0,2,2.525-1.683,18.955-28.8,15-11-.369,1.659-.667,3.333-1,5s-.667,3.333-1,5a46.534,46.534,0,0,0-1,10" fill="none" stroke="#000" stroke-linecap="round" stroke-linejoin="round" stroke-width="9.601"/>
    <path id="Path_81" data-name="Path 81" d="M456.832,788.686c7.239,3.62,11.076.385,18-1,6.449-1.29,13.6.281,20-1a65.274,65.274,0,0,0,16-6" fill="none" stroke="#000" stroke-linecap="round" stroke-linejoin="round" stroke-width="9.601"/>
    <path id="Path_82" data-name="Path 82" d="M382.832,773.686c-.617,1.233-2.9,4.35,1,5,5.261.877,10.666,0,16,0h21" fill="none" stroke="#000" stroke-linecap="round" stroke-linejoin="round" stroke-width="9.601"/>
    <path id="Path_83" data-name="Path 83" d="M902.832,363.686c-10.255,20.508-15.283,43.692-24,65-.253.617-.183-1.359,0-2,.493-1.726,1.386-3.313,2-5,.72-1.981,1.279-4.019,2-6a156.983,156.983,0,0,0,6-20c.526-2.369,1.524-4.62,2-7,.13-.654-.3-2.6,0-2,4.124,8.249,0,28.947,0,39v-2a18.215,18.215,0,0,1,0-3,43.066,43.066,0,0,0,1-7v-22a193.339,193.339,0,0,1-3,32c-.592,3.549-2.239,10-3,10-1.667,0,0-3.333,0-5v-21s.211,4.676,0,7a44.826,44.826,0,0,1-1,6,92.575,92.575,0,0,1-5,16c-.261.608-1.684,7.158-4,6-.531-.265-.922-6.533-1-7-1.122-6.733-4.946-16.791,2-22,9.4-7.048,6.055,8.945,10,5s7.588-18.354,9-24c.109-.436,1.808-9,3-9,2.276,0,2,10.352,2,11,0,6.746-.956,14.313,0,21,.254,1.777.394,5.8,2,5,.842-.421,1.882-8.528,2-9,2.22-8.882,1.105-17.048,2-26,.3-2.967,1.333-9.333,4-8,.523.262.271,8.745,0,12-1.1,13.241-7.158,25.895-12,38-1.706,4.265-4.182,11.212-6,10-4.12-2.746-.812-20.247-2-25-1.232-4.927-4-.739-4,2" fill="none" stroke="#000" stroke-linecap="round" stroke-linejoin="round" stroke-width="9.601"/>
    <path id="Path_84" data-name="Path 84" d="M865.832,495.686c0,4-.266,8.009,0,12a16.208,16.208,0,0,0,6,12c.572.477.723-1.308,1-2,1-2.495.732-5.326,1-8,.331-3.317,1.323-26.162,3-27,.666-.333.819,1.277,1,2a39.538,39.538,0,0,1,1,6c.588,6.465-1.272,13.642,0,20,.146.731.254,2,1,2,2.659,0,2.78-9.01,3-10,1.255-5.646,1.432-11.513,3-17,.042-.148,3.715-7.927,5-6,.981,1.472,0,15.976,0,19,0,1.333-1.193,4.6,0,4,3.292-1.646,3.535-10.442,4-13,1.361-7.486,8.24-34.06,16-36,4.88-1.22.363,19.822,0,22" fill="none" stroke="#000" stroke-linecap="round" stroke-linejoin="round" stroke-width="9.601"/>
    <path id="Path_85" data-name="Path 85" d="M889.832,549.686c0,3.667-1.819,7.816,0,11,.739,1.294,3.045-.855,4-2,.88-1.056.805-2.64,1-4,.156-1.093.659-11,2-11,.883,0,1.026,11.961,3,9,1.248-1.872.9-7.428,2-10,3.706-8.649,7.794-16.589,12-25,1.4-2.794,2.378-5.3,4-8,.707-1.179.028-4.972,1-4,.745.745.666,2,1,3" fill="none" stroke="#000" stroke-linecap="round" stroke-linejoin="round" stroke-width="9.601"/>
    <path id="Path_86" data-name="Path 86" d="M908.832,596.686c3.437-15.466,10.474-29.266,16-44" fill="none" stroke="#000" stroke-linecap="round" stroke-linejoin="round" stroke-width="9.601"/>
    <path id="Path_87" data-name="Path 87" d="M919.832,601.686c0-10.047,3.283-18.566,8-28" fill="none" stroke="#000" stroke-linecap="round" stroke-linejoin="round" stroke-width="9.601"/>
    <path id="Path_88" data-name="Path 88" d="M929.832,637.686c0-12.719,2.954-22.954,12-32" fill="none" stroke="#000" stroke-linecap="round" stroke-linejoin="round" stroke-width="9.601"/>
    <path id="Path_89" data-name="Path 89" d="M941.832,653.686c0-2.835-.211-1.714,1-5,1.969-5.345,4-10.667,6-16" fill="none" stroke="#000" stroke-linecap="round" stroke-linejoin="round" stroke-width="9.601"/>
    <path id="Path_90" data-name="Path 90" d="M945.832,681.186v0Z" fill="none" stroke="#000" stroke-linecap="round" stroke-linejoin="round" stroke-width="9.601"/>
    <path id="Path_91" data-name="Path 91" d="M909.832,275.686c0,11.44,8.154,20.907,14,30,7.969,12.4,18.914,22.871,27,35" fill="none" stroke="#000" stroke-linecap="round" stroke-linejoin="round" stroke-width="9.601"/>
    <path id="Path_92" data-name="Path 92" d="M906.832,284.686c5.613,22.452,25.664,41.329,36,62" fill="none" stroke="#000" stroke-linecap="round" stroke-linejoin="round" stroke-width="9.601"/>
    <path id="Path_93" data-name="Path 93" d="M897.832,287.686c3.558,17.79,22.188,38.056,32,54,2.746,4.462,8,10.421,8,16" fill="none" stroke="#000" stroke-linecap="round" stroke-linejoin="round" stroke-width="9.601"/>
    <path id="Path_94" data-name="Path 94" d="M909.832,306.686c4.912,7.368,8.817,19.952,12,27,6.664,14.758,11.774,30.549,19,45" fill="none" stroke="#000" stroke-linecap="round" stroke-linejoin="round" stroke-width="9.601"/>
    <path id="Path_95" data-name="Path 95" d="M919.832,350.686c5.385,10.77,8.854,19.826,15,31,1.857,3.377,4,6,4,10" fill="none" stroke="#000" stroke-linecap="round" stroke-linejoin="round" stroke-width="9.601"/>
    <path id="Path_96" data-name="Path 96" d="M920.832,355.686c4.789,14.368,9.631,28.352,16,42,3.464,7.423,4.447,16.171,9,23" fill="none" stroke="#000" stroke-linecap="round" stroke-linejoin="round" stroke-width="9.601"/>
    <path id="Path_97" data-name="Path 97" d="M912.832,355.686c6.125,13.782,12.557,27.356,19,41,4.952,10.488,9.5,22.249,16,32" fill="none" stroke="#000" stroke-linecap="round" stroke-linejoin="round" stroke-width="9.601"/>
    <path id="Path_98" data-name="Path 98" d="M926.832,397.686a163.739,163.739,0,0,0,27,54" fill="none" stroke="#000" stroke-linecap="round" stroke-linejoin="round" stroke-width="9.601"/>
    <path id="Path_99" data-name="Path 99" d="M910.832,324.686l-1-2,3,6c.666,1.333,1.372,2.648,2,4,3.706,7.982,7.341,16,11,24,5.153,11.273,12.1,23.3,16,35" fill="none" stroke="#000" stroke-linecap="round" stroke-linejoin="round" stroke-width="9.601"/>
    <path id="Path_100" data-name="Path 100" d="M910.832,310.686c7.614,20.3,17.036,40.127,23,61,1.53,5.356,2.241,10.725,4,16" fill="none" stroke="#000" stroke-linecap="round" stroke-linejoin="round" stroke-width="9.601"/>
    <path id="Path_101" data-name="Path 101" d="M445.832,510.686v2l2,2,2-5h0" fill="none" stroke="#000" stroke-linecap="round" stroke-linejoin="round" stroke-width="9.601"/>
    <path id="Path_102" data-name="Path 102" d="M448.832,492.686a29.459,29.459,0,0,0,13,25c2.174,1.449,6.828,4.257,7,4,2.039-3.059-5.067-17.888-6-21a30.57,30.57,0,0,1-1-5c-.124-.992-.316-3.949,0-3,2.7,8.1,4.548,14.58,9,22,.727,1.213,2,4,3,3,.888-.888-.978-6.822-1-7a197.275,197.275,0,0,1-2-24c0-1.7-.2-6.2,1-5,6.5,6.5,3.7,18.647,10,26,.681.794,4.878,5.122,7,3,2.023-2.023-2.08-22.932-3-26-.883-2.944-2-5.927-2-9,0-1-.895-3.447,0-3,2.042,1.021,7.858,19.573,9,23,.471,1.414.509,4,2,4,.745,0,.666-1.333,1-2" fill="none" stroke="#000" stroke-linecap="round" stroke-linejoin="round" stroke-width="9.601"/>
    <path id="Path_103" data-name="Path 103" d="M496.832,444.686c3.187,6.373,2.477,14.039,4,21,2.244,10.258,7.785,24.893,18,30" fill="none" stroke="#000" stroke-linecap="round" stroke-linejoin="round" stroke-width="9.601"/>
    <path id="Path_104" data-name="Path 104" d="M514.832,441.686c1.4,5.582,2.146,11.309,3,17,1.026,6.839,8.919,31.541,20,26" fill="none" stroke="#000" stroke-linecap="round" stroke-linejoin="round" stroke-width="9.601"/>
    <path id="Path_105" data-name="Path 105" d="M537.832,434.686c0,15.01,4.913,27.435,10,41" fill="none" stroke="#000" stroke-linecap="round" stroke-linejoin="round" stroke-width="9.601"/>
    <path id="Path_106" data-name="Path 106" d="M497.832,522.686c-3.758,11.274-4.745,24.489-10,35" fill="none" stroke="#000" stroke-linecap="round" stroke-linejoin="round" stroke-width="9.601"/>
    <path id="Path_107" data-name="Path 107" d="M504.832,533.686c-3.81,7.619-8,21-8,30" fill="none" stroke="#000" stroke-linecap="round" stroke-linejoin="round" stroke-width="9.601"/>
    <path id="Path_108" data-name="Path 108" d="M504.832,551.686c0,13.137-7.076,30.152-13,42" fill="none" stroke="#000" stroke-linecap="round" stroke-linejoin="round" stroke-width="9.601"/>
    <path id="Path_109" data-name="Path 109" d="M502.832,586.686c0,7.756-4.537,16.073-8,23" fill="none" stroke="#000" stroke-linecap="round" stroke-linejoin="round" stroke-width="9.601"/>
    <path id="Path_110" data-name="Path 110" d="M498.832,615.686c-5.092,10.184-7.459,20.376-11,31" fill="none" stroke="#000" stroke-linecap="round" stroke-linejoin="round" stroke-width="9.601"/>
    <path id="Path_111" data-name="Path 111" d="M493.832,645.686c0,4.351-4.776,20.552-7,25" fill="none" stroke="#000" stroke-linecap="round" stroke-linejoin="round" stroke-width="9.601"/>
    <path id="Path_112" data-name="Path 112" d="M497.832,663.686c0,7.714-4.385,21.153-7,29" fill="none" stroke="#000" stroke-linecap="round" stroke-linejoin="round" stroke-width="9.601"/>
    <path id="Path_113" data-name="Path 113" d="M552.832,525.686c0,6.118,5.267,8.427,11,9,7.636.764,15.333.667,23,1" fill="none" stroke="#000" stroke-linecap="round" stroke-linejoin="round" stroke-width="9.601"/>
    <path id="Path_114" data-name="Path 114" d="M579.832,519.686c-2.357,2.357-1.38,6.965,0,10,1.986,4.37,10.593,7,15,7" fill="none" stroke="#000" stroke-linecap="round" stroke-linejoin="round" stroke-width="9.601"/>
    <path id="Path_115" data-name="Path 115" d="M591.832,515.686c-1.841-1.841-2.4-6-5-6-1.932,0,4.814,10.475,6,12,3.249,4.177,7.523,10.015,12,13,4.392,2.928,9.659,2.83,14,5" fill="none" stroke="#000" stroke-linecap="round" stroke-linejoin="round" stroke-width="9.601"/>
    <path id="Path_116" data-name="Path 116" d="M608.832,507.686c5.705,17.114,14.7,20.848,29,28" fill="none" stroke="#000" stroke-linecap="round" stroke-linejoin="round" stroke-width="9.601"/>
    <path id="Path_117" data-name="Path 117" d="M629.832,511.686c0,14.5,15.069,18,27,18,3.475,0,6.866.567,10-1" fill="none" stroke="#000" stroke-linecap="round" stroke-linejoin="round" stroke-width="9.601"/>
    <path id="Path_118" data-name="Path 118" d="M660.832,517.686c-13.216-13.216,9.758,16.241,14,12,4.275-4.275-7.42-17.989-10-21-.921-1.074-2.216-1.823-3-3-.585-.877-1.746-3.745-1-3,1.054,1.054,1.03,2.868,2,4,5.5,6.413,16.815,12.894,24,17,.469.268,8.191,5.348,9,4,4.882-8.137-8.562-19.008-13-24-1.108-1.246-1.933-2.72-3-4-.6-.724-2-2.943-2-2,0,6.236,6.92,9.144,11,12,6.6,4.619,12.469,10.39,19,15,5.371,3.791,11.425,6.516,17,10" fill="none" stroke="#000" stroke-linecap="round" stroke-linejoin="round" stroke-width="9.601"/>
    <path id="Path_119" data-name="Path 119" d="M228.832,377.686c0,10.081,1,18.53,2,29,.254,2.667-.921,2,2,2" fill="none" stroke="#000" stroke-linecap="round" stroke-linejoin="round" stroke-width="9.601"/>
    <path id="Path_120" data-name="Path 120" d="M251.832,383.686c0,8.636-3,16.489-3,25" fill="none" stroke="#000" stroke-linecap="round" stroke-linejoin="round" stroke-width="9.601"/>
    <path id="Path_121" data-name="Path 121" d="M254.832,396.686c5.629,0,4,15.35,4,20" fill="none" stroke="#000" stroke-linecap="round" stroke-linejoin="round" stroke-width="9.601"/>
    <path id="Path_122" data-name="Path 122" d="M269.832,396.686v25" fill="none" stroke="#000" stroke-linecap="round" stroke-linejoin="round" stroke-width="9.601"/>
    <path id="Path_123" data-name="Path 123" d="M276.832,406.686c6.912-6.912,5,17.138,5,21" fill="none" stroke="#000" stroke-linecap="round" stroke-linejoin="round" stroke-width="9.601"/>
    <path id="Path_124" data-name="Path 124" d="M291.832,417.686a22.2,22.2,0,0,1,1-7c.015-.046.453,11.454,0,11C291.86,420.714,291.832,419.06,291.832,417.686Z" fill="none" stroke="#000" stroke-linecap="round" stroke-linejoin="round" stroke-width="9.601"/>
    <path id="Path_125" data-name="Path 125" d="M316.832,413.686a63.09,63.09,0,0,1-3,20" fill="none" stroke="#000" stroke-linecap="round" stroke-linejoin="round" stroke-width="9.601"/>
    <path id="Path_126" data-name="Path 126" d="M321.332,429.186c0-1.841.3-7.33.5-5.5.368,3.313,0,6.667,0,10a13.745,13.745,0,0,1,0,2A59,59,0,0,1,321.332,429.186Z" fill="none" stroke="#000" stroke-linecap="round" stroke-linejoin="round" stroke-width="9.601"/>
    <path id="Path_127" data-name="Path 127" d="M274.332,274.686a20.253,20.253,0,0,1-5.5-1c-.641-.183,1.333,0,2,0,2.666,0,5.436-.733,8,0C280.309,274.108,275.868,274.686,274.332,274.686Z" fill="none" stroke="#000" stroke-linecap="round" stroke-linejoin="round" stroke-width="9.601"/>
    <path id="Path_128" data-name="Path 128" d="M284.832,281.686c-7.054-.387-8.028-.945-11,5a43.392,43.392,0,0,0-3,8c-3.534,12.955,18.751-6.746,18-9C288.235,283.9,286.715,281.789,284.832,281.686Z" fill="none" stroke="#000" stroke-linecap="round" stroke-linejoin="round" stroke-width="9.601"/>
    <path id="Path_129" data-name="Path 129" d="M286.832,299.186a8.916,8.916,0,0,0-6-4.5c-.482-.1-1.461,4.309-1,5C281.753,302.569,291.99,309.982,286.832,299.186Z" fill="none" stroke="#000" stroke-linecap="round" stroke-linejoin="round" stroke-width="9.601"/>
    <path id="Path_130" data-name="Path 130" d="M264.832,340.686c7.009-3.505,16.448-2.5,24-3" fill="none" stroke="#000" stroke-linecap="round" stroke-linejoin="round" stroke-width="9.601"/>
    <path id="Path_131" data-name="Path 131" d="M286.832,353.686c-2.588-.726-5.393-1.652-8-1-1.446.361,2.566,1.59,4,2C284.208,355.079,294.792,355.919,286.832,353.686Z" fill="none" stroke="#000" stroke-linecap="round" stroke-linejoin="round" stroke-width="9.601"/>
    <path id="Path_132" data-name="Path 132" d="M283.332,379.186a11,11,0,0,0-8.5-2.5c-1.313.232-.686,2.857,0,4C274.836,380.693,293.185,387.383,283.332,379.186Z" fill="none" stroke="#000" stroke-linecap="round" stroke-linejoin="round" stroke-width="9.601"/>
    <path id="Path_133" data-name="Path 133" d="M267.832,375.686v-4" fill="none" stroke="#000" stroke-linecap="round" stroke-linejoin="round" stroke-width="9.601"/>
    <path id="Path_134" data-name="Path 134" d="M275.332,334.686c-1.244-2.694-2.6-6.356-5.5-7-1.98-.44.247,4.117,1,6,.619,1.547,2.031,2.644,3,4,.7.978,1.462,4.075,2,3C276.729,338.891,276.173,336.508,275.332,334.686Z" fill="none" stroke="#000" stroke-linecap="round" stroke-linejoin="round" stroke-width="9.601"/>
    <path id="Path_135" data-name="Path 135" d="M283.332,325.686c-1.05-1.8-3.446-3.374-5.5-3-1.312.238-.686,2.857,0,4C278.86,328.4,285.287,329.047,283.332,325.686Z" fill="none" stroke="#000" stroke-linecap="round" stroke-linejoin="round" stroke-width="9.601"/>
    <path id="Path_136" data-name="Path 136" d="M204.832,295.686c0,14.056-6.786,20.571-13,33" fill="none" stroke="#000" stroke-linecap="round" stroke-linejoin="round" stroke-width="9.601"/>
    <path id="Path_137" data-name="Path 137" d="M217.832,296.686c-5.6,8.392-5.579,19.868-11,28" fill="none" stroke="#000" stroke-linecap="round" stroke-linejoin="round" stroke-width="9.601"/>
    <path id="Path_138" data-name="Path 138" d="M231.332,284.686c-2.371-1.277-4.872-3.584-7.5-3-1.627.361,1.734,2.915,3,4,1.811,1.553,5.705,2.617,8,3,.657.11,2.439.5,2,0A19.274,19.274,0,0,0,231.332,284.686Z" fill="none" stroke="#000" stroke-linecap="round" stroke-linejoin="round" stroke-width="9.601"/>
    <path id="Path_139" data-name="Path 139" d="M236.332,269.686c-2.493.192-5,0-7.5,0a68.553,68.553,0,0,0,7,0c2.021-.156,3.972-1,6-1C243.7,268.686,238.19,269.543,236.332,269.686Z" fill="none" stroke="#000" stroke-linecap="round" stroke-linejoin="round" stroke-width="9.601"/>
    <path id="Path_140" data-name="Path 140" d="M245.832,264.686c2.426,0,4.747-1.1,7-2" fill="none" stroke="#000" stroke-linecap="round" stroke-linejoin="round" stroke-width="9.601"/>
    <path id="Path_141" data-name="Path 141" d="M111.832,320.686c0-4.79,5.154-8.6,9-11,6.981-4.363,14.018-8.637,21-13,5.416-3.385,23.37-18.741,26-24" fill="none" stroke="#000" stroke-linecap="round" stroke-linejoin="round" stroke-width="9.601"/>
    <path id="Path_142" data-name="Path 142" d="M133.832,327.686c16.356-16.356,37.705-24.705,54-41" fill="none" stroke="#000" stroke-linecap="round" stroke-linejoin="round" stroke-width="9.601"/>
    <path id="Path_143" data-name="Path 143" d="M149.832,336.686c14.239,0,27.727-.32,42-1" fill="none" stroke="#000" stroke-linecap="round" stroke-linejoin="round" stroke-width="9.601"/>
    <path id="Path_144" data-name="Path 144" d="M426.832,360.686c9.889,19.778,8.715,42.587,10,64,.416,6.94,0,14.041,0,21" fill="none" stroke="#000" stroke-linecap="round" stroke-linejoin="round" stroke-width="9.601"/>
    <path id="Path_145" data-name="Path 145" d="M401.832,381.686c10.831,16.247,10.243,37.552,12,56,.369,3.877,0,8.078,0,12" fill="none" stroke="#000" stroke-linecap="round" stroke-linejoin="round" stroke-width="9.601"/>
    <path id="Path_146" data-name="Path 146" d="M458.832,353.686c0,6.138,3.491,10.965,5,17,2.078,8.314,4,16.667,6,25" fill="none" stroke="#000" stroke-linecap="round" stroke-linejoin="round" stroke-width="9.601"/>
    <path id="Path_147" data-name="Path 147" d="M429.832,270.686c-4.136-8.271-2.483.7-2,6a69.393,69.393,0,0,0,4,17,39.433,39.433,0,0,1,2,6c.13.654-.472,2.471,0,2,4.72-4.72-6.877-25.047-9-30-.474-1.105-1.554-1.884-2-3-.17-.423.487-4-1-4-.667,0,0,1.333,0,2,0,3.668-.655,7.69,1,11a57.323,57.323,0,0,1,4,9,164.819,164.819,0,0,1,5,17c.931,4.284,1.172,8.7,2,13a149.253,149.253,0,0,0,5,19" fill="none" stroke="#000" stroke-linecap="round" stroke-linejoin="round" stroke-width="9.601"/>
    <path id="Path_148" data-name="Path 148" d="M603.832,258.686c0-7.1-.007,6.762,0,7,.3,10.668.424,21.344,1,32,.8,14.842,3.148,30.189,5,45,.768,6.145,1.419,16.42,6,21" fill="none" stroke="#000" stroke-linecap="round" stroke-linejoin="round" stroke-width="9.601"/>
    <path id="Path_149" data-name="Path 149" d="M545.832,275.686c-1.342-.447-4.265-2.368-3-3,1.909-.955,3.207,3.018,4,5,3.269,8.172,4.974,16.492,7,25,5.381,22.6,12.636,44.728,19,67" fill="none" stroke="#000" stroke-linecap="round" stroke-linejoin="round" stroke-width="9.601"/>
    <path id="Path_150" data-name="Path 150" d="M669.832,268.686l-6-3c-.667-.333-1.667-1.667-2-1-1.136,2.271,2.057,4.643,3,7,3.363,8.407,6.78,16.12,9,25,4.917,19.669,9,40.727,9,61" fill="none" stroke="#000" stroke-linecap="round" stroke-linejoin="round" stroke-width="9.601"/>
    <path id="Path_151" data-name="Path 151" d="M856.832,385.686c-7.576,0-10.534,2.7-18,5-3.837,1.18-8.017-.5-12-1" fill="none" stroke="#000" stroke-linecap="round" stroke-linejoin="round" stroke-width="9.601"/>
    <path id="Path_152" data-name="Path 152" d="M834.832,364.686c5.874,14.684-.543,30.672-5,45-5.486,17.634-10.119,36.355-16,54" fill="none" stroke="#000" stroke-linecap="round" stroke-linejoin="round" stroke-width="9.601"/>
    <path id="Path_153" data-name="Path 153" d="M817.832,366.686c-.667.333-1.7.316-2,1-5.111,11.818-9.113,24.088-14,36-.456,1.112-1.5,1.909-2,3-1.5,3.26-2.619,6.686-4,10-.529,1.269.374,4-1,4-2,0-.7-4.127,0-6a227.974,227.974,0,0,0,7-24c.323-1.294-.219-2.685,0-4,.122-.735,1-2.745,1-2,0,9.87-5.908,19.586-8,29a167.087,167.087,0,0,0-4,36" fill="none" stroke="#000" stroke-linecap="round" stroke-linejoin="round" stroke-width="9.601"/>
    <path id="Path_154" data-name="Path 154" d="M851.832,437.686c-4.332,8.664-6.685,17.738-9,27-1.023,4.09-4,16.216-4,12" fill="none" stroke="#000" stroke-linecap="round" stroke-linejoin="round" stroke-width="9.601"/>
    <path id="Path_155" data-name="Path 155" d="M847.832,450.686c2.259,11.3-1,28.367-1,41" fill="none" stroke="#000" stroke-linecap="round" stroke-linejoin="round" stroke-width="9.601"/>
    <path id="Path_156" data-name="Path 156" d="M353.832,429.686c-3,8.992-3.048,21.574-2,31,.082.741.616-1.361,1-2,.618-1.031,1.462-1.925,2-3,1.832-3.664,2.217-9.109,6-11,.666-.333,1.586-1.62,2-1,.739,1.109-.148,2.675,0,4a205.4,205.4,0,0,1,1,23v8c0,.667-.3,2.6,0,2,3.359-6.719,4.036-15.084,7-22,.137-.32,4.344-7.484,6-5s0,6,0,9v27a55.035,55.035,0,0,1-1,9c-.219,1.315-.943,4.943,0,4,.481-.482,1.987-6.961,2-7,2.064-6.192,4.547-14.476,8-20,1.131-1.81,2.224-3.816,4-5,.554-.37,1.789-.633,2,0,1.265,3.795,0,8,0,12,0,8.675-1.218,17.391-2,26-.306,3.36-1.338,7.688-2,11-.146.731-1.527,2.527-1,2,7.841-7.841,11.291-19.867,17-29,1.38-2.208,4.556-7.166,6-5,2.25,3.375-1.506,26.053-2,31-.339,3.382-1.579,6.627-2,10-.211,1.686-1.76,6.52-1,5,4.617-9.234,6.985-19.973,12-29,.286-.516,4.921-7.693,7-7,2.893.964.2,9.8,0,11-1.521,9.125-2.976,18.782-4,28v7c0,.667-.667,2,0,2,1.587,0,8.221-19.665,9-22,.142-.428,1.242-7,3-7,.82,0,1.41,4.079,1,9-.99,11.882-3,22.967-3,35" fill="none" stroke="#000" stroke-linecap="round" stroke-linejoin="round" stroke-width="9.601"/>
  </g>
</svg>
